<mxfile host="drawio-plugin" agent="Mozilla/5.0 (Windows NT 10.0; Win64; x64) AppleWebKit/537.36 (KHTML, like Gecko) Chrome/122.0.0.0 Safari/537.36" modified="2024-09-22T21:41:39.676Z" etag="h_qWcMGLYoAlTshwFJ8d" version="22.1.22" type="embed" pages="4">
  <diagram id="ZYKY_Wut95dLLKAp7VIu" name="Relaciones">
    <mxGraphModel dx="1541" dy="536" grid="1" gridSize="10" guides="1" tooltips="1" connect="1" arrows="1" fold="1" page="1" pageScale="1" pageWidth="827" pageHeight="1169" math="0" shadow="0">
      <root>
        <mxCell id="0" />
        <mxCell id="1" parent="0" />
        <mxCell id="5UvQ0I94y3ItUY_yfzeD-1" value="Monitor&lt;br&gt;" style="swimlane;fontStyle=1;align=center;verticalAlign=top;childLayout=stackLayout;horizontal=1;startSize=26;horizontalStack=0;resizeParent=1;resizeParentMax=0;resizeLast=0;collapsible=1;marginBottom=0;whiteSpace=wrap;html=1;" parent="1" vertex="1">
          <mxGeometry x="560" y="200" width="240" height="168" as="geometry" />
        </mxCell>
        <mxCell id="5UvQ0I94y3ItUY_yfzeD-2" value="&amp;lt;&amp;lt; Atributos &amp;gt;&amp;gt;&lt;br&gt;&lt;br&gt;- _marca : str&lt;br&gt;- _tamanio : float&lt;br&gt;- _tipoPantalla : str&lt;br&gt;- _tipoConexion : str" style="text;strokeColor=none;fillColor=none;align=left;verticalAlign=top;spacingLeft=4;spacingRight=4;overflow=hidden;rotatable=0;points=[[0,0.5],[1,0.5]];portConstraint=eastwest;whiteSpace=wrap;html=1;" parent="5UvQ0I94y3ItUY_yfzeD-1" vertex="1">
          <mxGeometry y="26" width="240" height="134" as="geometry" />
        </mxCell>
        <mxCell id="5UvQ0I94y3ItUY_yfzeD-3" value="" style="line;strokeWidth=1;fillColor=none;align=left;verticalAlign=middle;spacingTop=-1;spacingLeft=3;spacingRight=3;rotatable=0;labelPosition=right;points=[];portConstraint=eastwest;strokeColor=inherit;" parent="5UvQ0I94y3ItUY_yfzeD-1" vertex="1">
          <mxGeometry y="160" width="240" height="8" as="geometry" />
        </mxCell>
        <mxCell id="MIBj58bItJTPoqeEDLXs-1" value="Teclado" style="swimlane;fontStyle=1;align=center;verticalAlign=top;childLayout=stackLayout;horizontal=1;startSize=26;horizontalStack=0;resizeParent=1;resizeParentMax=0;resizeLast=0;collapsible=1;marginBottom=0;whiteSpace=wrap;html=1;" parent="1" vertex="1">
          <mxGeometry x="-160" y="200" width="240" height="168" as="geometry" />
        </mxCell>
        <mxCell id="MIBj58bItJTPoqeEDLXs-2" value="&amp;lt;&amp;lt; Atributos &amp;gt;&amp;gt;&lt;br&gt;&lt;br&gt;- marca : str&lt;br&gt;- lenguaje : str&lt;br&gt;- incluyeNumPad : bool&lt;br&gt;- incluyeRetroIlum : bool" style="text;strokeColor=none;fillColor=none;align=left;verticalAlign=top;spacingLeft=4;spacingRight=4;overflow=hidden;rotatable=0;points=[[0,0.5],[1,0.5]];portConstraint=eastwest;whiteSpace=wrap;html=1;" parent="MIBj58bItJTPoqeEDLXs-1" vertex="1">
          <mxGeometry y="26" width="240" height="134" as="geometry" />
        </mxCell>
        <mxCell id="MIBj58bItJTPoqeEDLXs-3" value="" style="line;strokeWidth=1;fillColor=none;align=left;verticalAlign=middle;spacingTop=-1;spacingLeft=3;spacingRight=3;rotatable=0;labelPosition=right;points=[];portConstraint=eastwest;strokeColor=inherit;" parent="MIBj58bItJTPoqeEDLXs-1" vertex="1">
          <mxGeometry y="160" width="240" height="8" as="geometry" />
        </mxCell>
        <mxCell id="kqEflZq80L2RFZH6NnLc-1" value="Computadora" style="swimlane;fontStyle=1;align=center;verticalAlign=top;childLayout=stackLayout;horizontal=1;startSize=26;horizontalStack=0;resizeParent=1;resizeParentMax=0;resizeLast=0;collapsible=1;marginBottom=0;whiteSpace=wrap;html=1;" parent="1" vertex="1">
          <mxGeometry x="180" y="40" width="280" height="198" as="geometry" />
        </mxCell>
        <mxCell id="kqEflZq80L2RFZH6NnLc-2" value="&lt;div&gt;&amp;lt;&amp;lt;&amp;nbsp;Atributos &amp;gt;&amp;gt;&lt;/div&gt;&lt;div&gt;&lt;br&gt;&lt;/div&gt;&lt;div&gt;- _marca : str&lt;/div&gt;- _memoriaRam : int&lt;div&gt;- _procesador : str&lt;/div&gt;&lt;div&gt;- _tienePlacaGrafica : bool&lt;/div&gt;&lt;div&gt;- _teclado : Teclado&lt;/div&gt;&lt;div&gt;- _ monitor : Monitor&lt;/div&gt;&lt;div&gt;&lt;br&gt;&lt;/div&gt;" style="text;strokeColor=none;fillColor=none;align=left;verticalAlign=top;spacingLeft=4;spacingRight=4;overflow=hidden;rotatable=0;points=[[0,0.5],[1,0.5]];portConstraint=eastwest;whiteSpace=wrap;html=1;" parent="kqEflZq80L2RFZH6NnLc-1" vertex="1">
          <mxGeometry y="26" width="280" height="164" as="geometry" />
        </mxCell>
        <mxCell id="kqEflZq80L2RFZH6NnLc-3" value="" style="line;strokeWidth=1;fillColor=none;align=left;verticalAlign=middle;spacingTop=-1;spacingLeft=3;spacingRight=3;rotatable=0;labelPosition=right;points=[];portConstraint=eastwest;strokeColor=inherit;" parent="kqEflZq80L2RFZH6NnLc-1" vertex="1">
          <mxGeometry y="190" width="280" height="8" as="geometry" />
        </mxCell>
        <mxCell id="87uuwTKoJawjQbDXZFPx-1" value="" style="endArrow=diamondThin;endFill=0;endSize=24;html=1;rounded=0;entryX=0;entryY=0.5;entryDx=0;entryDy=0;exitX=1;exitY=0.5;exitDx=0;exitDy=0;" parent="1" source="MIBj58bItJTPoqeEDLXs-2" target="kqEflZq80L2RFZH6NnLc-2" edge="1">
          <mxGeometry width="160" relative="1" as="geometry">
            <mxPoint x="50" y="248" as="sourcePoint" />
            <mxPoint x="230" y="187" as="targetPoint" />
            <Array as="points" />
          </mxGeometry>
        </mxCell>
        <mxCell id="87uuwTKoJawjQbDXZFPx-2" value="" style="endArrow=diamondThin;endFill=0;endSize=24;html=1;rounded=0;exitX=0;exitY=0.5;exitDx=0;exitDy=0;entryX=1;entryY=0.5;entryDx=0;entryDy=0;" parent="1" source="5UvQ0I94y3ItUY_yfzeD-2" target="kqEflZq80L2RFZH6NnLc-2" edge="1">
          <mxGeometry width="160" relative="1" as="geometry">
            <mxPoint x="380" y="431" as="sourcePoint" />
            <mxPoint x="360" y="340" as="targetPoint" />
            <Array as="points">
              <mxPoint x="500" y="210" />
            </Array>
          </mxGeometry>
        </mxCell>
      </root>
    </mxGraphModel>
  </diagram>
  <diagram id="23iRSUPoRavnBvh4doch" name="Clase Monitor">
    <mxGraphModel dx="714" dy="536" grid="1" gridSize="10" guides="1" tooltips="1" connect="1" arrows="1" fold="1" page="1" pageScale="1" pageWidth="827" pageHeight="1169" math="0" shadow="0">
      <root>
        <mxCell id="0" />
        <mxCell id="1" parent="0" />
        <mxCell id="2" value="Monitor&lt;br&gt;" style="swimlane;fontStyle=1;align=center;verticalAlign=top;childLayout=stackLayout;horizontal=1;startSize=26;horizontalStack=0;resizeParent=1;resizeParentMax=0;resizeLast=0;collapsible=1;marginBottom=0;whiteSpace=wrap;html=1;" parent="1" vertex="1">
          <mxGeometry x="40" y="40" width="250" height="490" as="geometry" />
        </mxCell>
        <mxCell id="3" value="&amp;lt;&amp;lt; Atributos &amp;gt;&amp;gt;&lt;br&gt;&lt;br&gt;- _marca : str&lt;br&gt;- _tamanio : float&lt;br&gt;- _tipoPantalla : str&lt;br&gt;- _tipoConexion : str" style="text;strokeColor=none;fillColor=none;align=left;verticalAlign=top;spacingLeft=4;spacingRight=4;overflow=hidden;rotatable=0;points=[[0,0.5],[1,0.5]];portConstraint=eastwest;whiteSpace=wrap;html=1;" parent="2" vertex="1">
          <mxGeometry y="26" width="250" height="104" as="geometry" />
        </mxCell>
        <mxCell id="4" value="" style="line;strokeWidth=1;fillColor=none;align=left;verticalAlign=middle;spacingTop=-1;spacingLeft=3;spacingRight=3;rotatable=0;labelPosition=right;points=[];portConstraint=eastwest;strokeColor=inherit;" parent="2" vertex="1">
          <mxGeometry y="130" width="250" height="8" as="geometry" />
        </mxCell>
        <mxCell id="5" value="&amp;lt;&amp;lt; Constructor &amp;gt;&amp;gt;&lt;br&gt;&lt;br&gt;+ __init__(self, marca, tamanio, tipoPantalla, tipoConexion)&lt;br&gt;&lt;br&gt;&lt;br&gt;&amp;lt;&amp;lt; Métodos de consulta &amp;gt;&amp;gt;&lt;br&gt;&lt;br&gt;+ getMarca() : str&lt;br&gt;+ getTamanio() : float&lt;br&gt;+ getTipoPantalla() : str&lt;br&gt;+ getTipoConexion() : str&lt;br&gt;&lt;br&gt;&lt;br&gt;&amp;lt;&amp;lt; Comandos de Modificación &amp;gt;&amp;gt;&lt;br&gt;&lt;br&gt;+ setMarca(nuevoModelo : str)&lt;br style=&quot;border-color: var(--border-color);&quot;&gt;+ setTamanio(nuevoTamanio : float)&lt;br style=&quot;border-color: var(--border-color);&quot;&gt;+setTipoPantalla(nuevoTipoPantalla : str)&lt;br style=&quot;border-color: var(--border-color);&quot;&gt;+ setTipoConexion(nuevoTipoConexion : str)" style="text;strokeColor=none;fillColor=none;align=left;verticalAlign=top;spacingLeft=4;spacingRight=4;overflow=hidden;rotatable=0;points=[[0,0.5],[1,0.5]];portConstraint=eastwest;whiteSpace=wrap;html=1;" parent="2" vertex="1">
          <mxGeometry y="138" width="250" height="352" as="geometry" />
        </mxCell>
        <mxCell id="19" style="edgeStyle=orthogonalEdgeStyle;rounded=0;orthogonalLoop=1;jettySize=auto;html=1;exitX=0;exitY=0.5;exitDx=0;exitDy=0;exitPerimeter=0;" parent="1" source="18" edge="1">
          <mxGeometry relative="1" as="geometry">
            <mxPoint x="300" y="120" as="targetPoint" />
          </mxGeometry>
        </mxCell>
        <mxCell id="18" value="El tamaño del monitor puede ser un float (como acá, refiriéndose a las pulgadas) o un str (si ponemos una resolución específica)" style="shape=note;whiteSpace=wrap;html=1;backgroundOutline=1;darkOpacity=0.05;" parent="1" vertex="1">
          <mxGeometry x="360" y="60" width="280" height="120" as="geometry" />
        </mxCell>
      </root>
    </mxGraphModel>
  </diagram>
  <diagram id="sefUCC0OhCs1N77oSjA7" name="Clase Teclado">
    <mxGraphModel dx="714" dy="536" grid="1" gridSize="10" guides="1" tooltips="1" connect="1" arrows="1" fold="1" page="1" pageScale="1" pageWidth="827" pageHeight="1169" math="0" shadow="0">
      <root>
        <mxCell id="0" />
        <mxCell id="1" parent="0" />
        <mxCell id="puK1TJbtTNZW50JBzEjT-1" value="Teclado" style="swimlane;fontStyle=1;align=center;verticalAlign=top;childLayout=stackLayout;horizontal=1;startSize=26;horizontalStack=0;resizeParent=1;resizeParentMax=0;resizeLast=0;collapsible=1;marginBottom=0;whiteSpace=wrap;html=1;" parent="1" vertex="1">
          <mxGeometry x="40" y="40" width="250" height="466" as="geometry" />
        </mxCell>
        <mxCell id="puK1TJbtTNZW50JBzEjT-2" value="&amp;lt;&amp;lt; Atributos &amp;gt;&amp;gt;&lt;br&gt;&lt;br&gt;- marca : str&lt;br&gt;- lenguaje : str&lt;br&gt;- incluyeNumPad : bool&lt;br&gt;- incluyeRetroIlum : bool" style="text;strokeColor=none;fillColor=none;align=left;verticalAlign=top;spacingLeft=4;spacingRight=4;overflow=hidden;rotatable=0;points=[[0,0.5],[1,0.5]];portConstraint=eastwest;whiteSpace=wrap;html=1;" parent="puK1TJbtTNZW50JBzEjT-1" vertex="1">
          <mxGeometry y="26" width="250" height="124" as="geometry" />
        </mxCell>
        <mxCell id="puK1TJbtTNZW50JBzEjT-3" value="" style="line;strokeWidth=1;fillColor=none;align=left;verticalAlign=middle;spacingTop=-1;spacingLeft=3;spacingRight=3;rotatable=0;labelPosition=right;points=[];portConstraint=eastwest;strokeColor=inherit;" parent="puK1TJbtTNZW50JBzEjT-1" vertex="1">
          <mxGeometry y="150" width="250" height="8" as="geometry" />
        </mxCell>
        <mxCell id="puK1TJbtTNZW50JBzEjT-4" value="&amp;lt;&amp;lt; Constructor &amp;gt;&amp;gt;&lt;br&gt;&lt;br&gt;+ __init__(self, marca, lenguaje, incluyeNumpad, incluyeRetroIlum)&lt;br&gt;&lt;br&gt;&amp;lt;&amp;lt; Comandos de Consulta&amp;gt;&amp;gt;&lt;br&gt;&lt;br&gt;+ getMarca() : str&lt;br&gt;+ getLenguaje() : str&lt;br&gt;+ getNumPad() : bool&lt;br&gt;+ getRetroIlum() : bool&lt;br&gt;&lt;br&gt;&amp;lt;&amp;lt; Comandos de Modificación &amp;gt;&amp;gt;&lt;br&gt;&lt;br&gt;+ setMarca(nuevaMarca : str)&lt;br&gt;+ setLenguaje(nuevoLenguaje : str)&lt;br&gt;+ setNumPad (estadoNumpad : bool)&lt;br&gt;+ setRetroIlum(estadoRetroIlum : bool)" style="text;strokeColor=none;fillColor=none;align=left;verticalAlign=top;spacingLeft=4;spacingRight=4;overflow=hidden;rotatable=0;points=[[0,0.5],[1,0.5]];portConstraint=eastwest;whiteSpace=wrap;html=1;" parent="puK1TJbtTNZW50JBzEjT-1" vertex="1">
          <mxGeometry y="158" width="250" height="308" as="geometry" />
        </mxCell>
        <mxCell id="puK1TJbtTNZW50JBzEjT-5" value="Los dos últimos atributos son booleanos porque representan un estado &lt;b&gt;(si tienen o no una característica, no la caraterística en sí)&lt;/b&gt;." style="shape=note;whiteSpace=wrap;html=1;backgroundOutline=1;darkOpacity=0.05;" parent="1" vertex="1">
          <mxGeometry x="360" y="70" width="340" height="120" as="geometry" />
        </mxCell>
        <mxCell id="puK1TJbtTNZW50JBzEjT-6" style="edgeStyle=orthogonalEdgeStyle;rounded=0;orthogonalLoop=1;jettySize=auto;html=1;exitX=0;exitY=0.5;exitDx=0;exitDy=0;exitPerimeter=0;entryX=1.006;entryY=0.681;entryDx=0;entryDy=0;entryPerimeter=0;" parent="1" source="puK1TJbtTNZW50JBzEjT-5" target="puK1TJbtTNZW50JBzEjT-2" edge="1">
          <mxGeometry relative="1" as="geometry" />
        </mxCell>
      </root>
    </mxGraphModel>
  </diagram>
  <diagram id="23DF2OBkuWWY2qUN5N1D" name="Clase Computadora">
    <mxGraphModel dx="714" dy="536" grid="1" gridSize="10" guides="1" tooltips="1" connect="1" arrows="1" fold="1" page="1" pageScale="1" pageWidth="827" pageHeight="1169" math="0" shadow="0">
      <root>
        <mxCell id="0" />
        <mxCell id="1" parent="0" />
        <mxCell id="tGOA8Vm2pffQXoOCcnJP-1" value="Computadora" style="swimlane;fontStyle=1;align=center;verticalAlign=top;childLayout=stackLayout;horizontal=1;startSize=26;horizontalStack=0;resizeParent=1;resizeParentMax=0;resizeLast=0;collapsible=1;marginBottom=0;whiteSpace=wrap;html=1;" parent="1" vertex="1">
          <mxGeometry x="100" y="70" width="280" height="660" as="geometry" />
        </mxCell>
        <mxCell id="tGOA8Vm2pffQXoOCcnJP-2" value="&lt;div&gt;&amp;lt;&amp;lt;&amp;nbsp;Atributos &amp;gt;&amp;gt;&lt;/div&gt;&lt;div&gt;&lt;br&gt;&lt;/div&gt;&lt;div&gt;- _marca : str&lt;/div&gt;- _memoriaRam : int&lt;div&gt;- _procesador : str&lt;/div&gt;&lt;div&gt;- _tienePlacaGrafica : bool&lt;/div&gt;&lt;div&gt;- _teclado : Teclado&lt;/div&gt;&lt;div&gt;- _monitor : Monitor&lt;/div&gt;" style="text;strokeColor=none;fillColor=none;align=left;verticalAlign=top;spacingLeft=4;spacingRight=4;overflow=hidden;rotatable=0;points=[[0,0.5],[1,0.5]];portConstraint=eastwest;whiteSpace=wrap;html=1;" parent="tGOA8Vm2pffQXoOCcnJP-1" vertex="1">
          <mxGeometry y="26" width="280" height="174" as="geometry" />
        </mxCell>
        <mxCell id="tGOA8Vm2pffQXoOCcnJP-3" value="" style="line;strokeWidth=1;fillColor=none;align=left;verticalAlign=middle;spacingTop=-1;spacingLeft=3;spacingRight=3;rotatable=0;labelPosition=right;points=[];portConstraint=eastwest;strokeColor=inherit;" parent="tGOA8Vm2pffQXoOCcnJP-1" vertex="1">
          <mxGeometry y="200" width="280" height="8" as="geometry" />
        </mxCell>
        <mxCell id="tGOA8Vm2pffQXoOCcnJP-4" value="&amp;lt;&amp;lt; Constructor &amp;gt;&amp;gt;&lt;div&gt;&lt;br&gt;&lt;/div&gt;&lt;div&gt;+ __init__(self, memoriaRam : int, procesador : str, tienePlacaGrafica : bool, teclado : Teclado, monitor : Monitor)&lt;/div&gt;&lt;div&gt;&lt;span style=&quot;background-color: initial;&quot;&gt;&lt;br&gt;&lt;/span&gt;&lt;/div&gt;&lt;div&gt;&lt;span style=&quot;background-color: initial;&quot;&gt;&amp;lt;&amp;lt; Métodos de Consulta&amp;gt;&amp;gt;&lt;/span&gt;&lt;br&gt;&lt;/div&gt;&lt;div&gt;&lt;br&gt;&lt;/div&gt;&lt;div&gt;+ getMarca() : str&lt;/div&gt;&lt;div&gt;+ getRam() : int&lt;/div&gt;&lt;div&gt;+ getProcesador : str&lt;/div&gt;&lt;div&gt;+ getTienePlacaGrafica : bool&lt;/div&gt;&lt;div&gt;+ getTeclado : Teclado&lt;/div&gt;&lt;div&gt;+ getMonitor : Monitor&lt;/div&gt;&lt;div&gt;&lt;br&gt;&lt;/div&gt;&lt;div&gt;&lt;br&gt;&lt;/div&gt;&lt;div&gt;&amp;lt;&amp;lt; Métodos de Modificación&amp;gt;&amp;gt;&lt;br&gt;&lt;/div&gt;&lt;div&gt;&lt;br&gt;&lt;/div&gt;&lt;div&gt;+ setMarca(nuevaMarca : str)&lt;/div&gt;&lt;div&gt;+ setRam (nuevaRam : int)&lt;/div&gt;&lt;div&gt;+ setProcesador (nuevoProcesador : str)&lt;/div&gt;&lt;div&gt;+ setTienePlacaGrafica (nuevoEstado : bool)&lt;/div&gt;&lt;div&gt;&lt;br&gt;&lt;/div&gt;&lt;div&gt;&lt;span style=&quot;background-color: initial;&quot;&gt;&lt;br&gt;&lt;/span&gt;&lt;/div&gt;&lt;div&gt;&lt;span style=&quot;background-color: initial;&quot;&gt;&amp;lt;&amp;lt; Métodos Operacionales &amp;gt;&amp;gt;&lt;/span&gt;&lt;br&gt;&lt;/div&gt;&lt;div&gt;&lt;span style=&quot;background-color: initial;&quot;&gt;&lt;br&gt;&lt;/span&gt;&lt;/div&gt;&lt;div&gt;+ agregarTeclado(nuevoTeclado : Teclado)&lt;/div&gt;&lt;div&gt;+ agregarMonitor(nuevoMonitor : Monitor)&lt;/div&gt;&lt;div&gt;&lt;br&gt;&lt;/div&gt;&lt;div&gt;&lt;br&gt;&lt;/div&gt;" style="text;strokeColor=none;fillColor=none;align=left;verticalAlign=top;spacingLeft=4;spacingRight=4;overflow=hidden;rotatable=0;points=[[0,0.5],[1,0.5]];portConstraint=eastwest;whiteSpace=wrap;html=1;" parent="tGOA8Vm2pffQXoOCcnJP-1" vertex="1">
          <mxGeometry y="208" width="280" height="452" as="geometry" />
        </mxCell>
      </root>
    </mxGraphModel>
  </diagram>
</mxfile>
